<svg xmlns="http://www.w3.org/2000/svg" viewBox="0 0 60.5 60.5"><defs><style>.cls-1{fill:#323232;}.cls-2{fill:none;}</style></defs><g id="レイヤー_2" data-name="レイヤー 2"><g id="_1" data-name="1"><path class="cls-1" d="M49.3,20.75h0L35,8.23a7.13,7.13,0,0,0-9.52,0L11.2,20.75a7.13,7.13,0,0,0-2.38,5.38V47A7.14,7.14,0,0,0,16,54.09H44.54A7.14,7.14,0,0,0,51.68,47V26.11A7.14,7.14,0,0,0,49.3,20.75ZM35,49.33H25.49V37.42A2.38,2.38,0,0,1,27.87,35h4.76A2.38,2.38,0,0,1,35,37.42ZM46.92,47a2.39,2.39,0,0,1-2.38,2.38H39.78V37.42a7.15,7.15,0,0,0-7.15-7.14H27.87a7.15,7.15,0,0,0-7.15,7.14V49.33H16A2.39,2.39,0,0,1,13.58,47V26.11a2.42,2.42,0,0,1,.81-1.79l14.29-12.5a2.38,2.38,0,0,1,3.14,0l14.29,12.5a2.42,2.42,0,0,1,.81,1.79Z"/><rect class="cls-2" width="60.5" height="60.5"/></g></g></svg>