<svg xmlns="http://www.w3.org/2000/svg" viewBox="0 0 60.5 60.5"><defs><style>.cls-1{fill:#323232;}.cls-2{fill:none;}</style></defs><g id="レイヤー_2" data-name="レイヤー 2"><g id="_1" data-name="1"><path class="cls-1" d="M34,51.15c-2.19,0-4.53-1.63-4.55-5.2H26.6c0,3.57-2.33,5.2-4.47,5.2H19.55a5.07,5.07,0,0,1-4.93-2.94c-.1-.22-.19-.46-.38-1l-.18-.47a29.34,29.34,0,0,0-3.31-5.27A17,17,0,0,1,6.67,30.33a17.24,17.24,0,0,1,.26-2.93l-.26-.29a4.93,4.93,0,0,1-.94-5.37A4.69,4.69,0,0,1,10,18.92h.19l.46,0a20.6,20.6,0,0,1,9-6.68,26.66,26.66,0,0,1,8.25-1.73c.62,0,1.24,0,1.87,0l1.37,0a21.51,21.51,0,0,1,4.11.54l.25,0a14.35,14.35,0,0,1,6.89-1.76h.44c.4,0,.68,0,.9.05a3.7,3.7,0,0,1,1.37.41A4.17,4.17,0,0,1,47,11.41,4.32,4.32,0,0,1,47.41,15l-1,3,.33.44A31.19,31.19,0,0,1,48.92,22a8.88,8.88,0,0,0,1.28,2l.45.18c1.29.48,5.25,2,4.43,6.05l-.14.71c-.58,2.92-.94,4.66-1.2,5.45l-.14.44a6,6,0,0,1-2.81,3.83,7.37,7.37,0,0,1-2.82.92l-.68.14a3.2,3.2,0,0,1-.66.22,16.07,16.07,0,0,1-1.64.3l-.32,0a12.17,12.17,0,0,0-.92,1.5l-.07.11a23.45,23.45,0,0,0-1.26,2.69l-.28.72c-.19.49-.29.72-.39.92a5.22,5.22,0,0,1-5,2.88Zm-.1-9.65v4.42a1.53,1.53,0,0,0,.14.82l2.7,0c.82,0,.92-.19,1-.41s.13-.3.24-.59l.28-.71a27,27,0,0,1,1.58-3.35c1.72-3.1,2.55-3.48,4.47-3.76.34-.05.72-.1,1.17-.2a7,7,0,0,1,1.64-.43A6.73,6.73,0,0,0,48.39,37c.63-.41.63-.41,1-1.48l.15-.45c.22-.67.78-3.51,1-4.88l.15-.76c.06-.31-.48-.58-1.64-1l-.53-.21C46.8,27.48,46,25.92,45,24.12A26.44,26.44,0,0,0,43.15,21a12.21,12.21,0,0,0-1.3-1.54l-.43-.43,1.71-5.24-.44,0h-.31a9.87,9.87,0,0,0-5.77,1.85l-.41.29-.48-.15c-.47-.15-1-.28-1.47-.4A17.84,17.84,0,0,0,31,15l-1.2,0c-.56,0-1.1,0-1.62,0a22.66,22.66,0,0,0-6.88,1.43,15.93,15.93,0,0,0-8,6.59l-.31.52-3-.16a.34.34,0,0,0-.19.19.54.54,0,0,0,.18.58A15.22,15.22,0,0,1,11.46,26l.25.38-.11.43a13.45,13.45,0,0,0-.48,3.49,12.58,12.58,0,0,0,3.05,8.3,33.78,33.78,0,0,1,4,6.29l0,.1.24.65.25.66c.11.22.18.37.9.37H22a2,2,0,0,0,.11-.78V41.5Z"/><path class="cls-1" d="M6.64,22.15A3.69,3.69,0,0,1,10,19.92h.16l1,0A19.57,19.57,0,0,1,20,13.2a25.65,25.65,0,0,1,7.94-1.66c.6,0,1.21,0,1.82,0l1.33,0A21.24,21.24,0,0,1,35,12l.61.15a13.37,13.37,0,0,1,6.75-1.83h.42c.35,0,.61,0,.8,0a2.89,2.89,0,0,1,1,.3,3.29,3.29,0,0,1,1.83,4L45.32,18.2c.23.27.44.55.64.83A29.82,29.82,0,0,1,48,22.49c.75,1.4,1.23,2.26,1.77,2.48h0L50,25l.3.11c1.34.5,4.46,1.67,3.81,4.92l-.14.72c-.56,2.81-.92,4.59-1.17,5.33l-.14.43a5,5,0,0,1-2.4,3.31,6.9,6.9,0,0,1-2.46.78c-.27,0-.66.12-.84.17a2.06,2.06,0,0,1-.54.2c-.63.15-1.15.22-1.56.28a5,5,0,0,0-.7.13,7.34,7.34,0,0,0-1.28,1.93l0,.08a21.86,21.86,0,0,0-1.33,2.85c-.11.26-.2.5-.28.7-.18.45-.26.66-.35.84a4.23,4.23,0,0,1-4.12,2.33H34c-1.77,0-3.55-1.31-3.55-4.23V45H25.6v1c0,2.92-1.75,4.23-3.47,4.23H19.55a4.07,4.07,0,0,1-4-2.37c-.09-.19-.17-.42-.35-.9l-.2-.53a29.74,29.74,0,0,0-3.46-5.5A16.06,16.06,0,0,1,7.67,30.33,16.88,16.88,0,0,1,8,27.12c-.16-.2-.36-.43-.58-.68A4,4,0,0,1,6.64,22.15ZM9.23,24.8a15.58,15.58,0,0,1,1.4,1.78,14.37,14.37,0,0,0-.51,3.75,13.49,13.49,0,0,0,3.29,9,33,33,0,0,1,3.81,6.09h0c.26.68.45,1.21.52,1.37.26.55.65,1,1.81,1h2.57c.78,0,1-.82,1-1.78V42.5H32.9v3.42c0,1,.27,1.78,1.1,1.78h2.74c1.24,0,1.65-.41,1.92-1,.08-.16.28-.69.56-1.37a22.81,22.81,0,0,1,1.51-3.21c2.07-3.74,2.48-2.92,5.13-3.54h0c.59-.34,2.49-.45,3.06-.81,1-.67,1-.81,1.55-2.46.29-.88,1-4.55,1.23-5.76s-1.23-1.75-2.6-2.28l-.19-.07c-2.19-.87-2.7-3.64-4.94-6.79a12.67,12.67,0,0,0-1.41-1.66L44.13,14a.83.83,0,0,0-.09-.7.82.82,0,0,0-.6-.38s.34-.06-.72-.09h-.34a10.87,10.87,0,0,0-6.36,2c-.49-.16-1-.3-1.54-.42A19.11,19.11,0,0,0,31,14l-1.24,0c-.57,0-1.13,0-1.68,0a23.27,23.27,0,0,0-7.19,1.5,16.93,16.93,0,0,0-8.5,7L10,22.37h0A1.38,1.38,0,0,0,9.23,24.8Z"/><path class="cls-1" d="M41.13,27.29a2.32,2.32,0,1,1-2.32,2.32A2.32,2.32,0,0,1,41.13,27.29Z"/><rect class="cls-2" width="60.5" height="60.5"/></g></g></svg>