<svg xmlns="http://www.w3.org/2000/svg" viewBox="0 0 60.5 60.5"><defs><style>.cls-1{fill:none;}.cls-2{fill:#323232;}</style></defs><g id="レイヤー_2" data-name="レイヤー 2"><g id="_1" data-name="1"><rect class="cls-1" width="60.5" height="60.5"/><path class="cls-2" d="M53.43,19.44,41.18,7.07a2.21,2.21,0,0,0-3.09,0L7.07,38a2.2,2.2,0,0,0,0,3.08L19.44,53.43a2.14,2.14,0,0,0,1.55.63,2.2,2.2,0,0,0,1.53-.63l6.18-6.18h0L47.25,28.7h0l6.18-6.18A2.2,2.2,0,0,0,53.43,19.44ZM45.7,24.07l-1.55-1.55a2.19,2.19,0,0,0-3.1,3.09h0l1.55,1.55-3.11,3.08-4.63-4.63A2.18,2.18,0,0,0,31.8,28.7l4.63,4.63-3.1,3.1L31.8,34.88A2.19,2.19,0,0,0,28.7,38l1.55,1.53-3.08,3.1L22.52,38a2.18,2.18,0,1,0-3.08,3.08l4.63,4.64L21,48.8,11.7,39.51,39.51,11.7,48.8,21Z"/></g></g></svg>