<svg xmlns="http://www.w3.org/2000/svg" viewBox="0 0 225.74 226.02"><defs><style>.cls-1{fill:#323232;}</style></defs><g id="レイヤー_2" data-name="レイヤー 2"><g id="レイヤー_1-2" data-name="レイヤー 1"><path class="cls-1" d="M206.92,94.17H64.08l62.1-61.91A18.9,18.9,0,0,0,99.46,5.53L5.36,99.63a18.94,18.94,0,0,0-3.95,6.21,18.86,18.86,0,0,0,0,14.31,18.94,18.94,0,0,0,4,6.21l94.1,94.09a18.82,18.82,0,0,0,26.62.11l.1-.11a18.81,18.81,0,0,0,.11-26.61l-.11-.11-62.1-61.92H206.92a18.82,18.82,0,1,0,0-37.64Z"/></g></g></svg>