<svg xmlns="http://www.w3.org/2000/svg" viewBox="0 0 101.98 121.47"><defs><style>.cls-1{fill:#955025;}.cls-2{fill:#d1883a;}.cls-3{fill:none;stroke:#de9647;stroke-miterlimit:10;}.cls-4{fill:#de9647;}.cls-5{fill:#7c4424;}.cls-6{fill:#eead25;}.cls-7{fill:#e97a24;}.cls-8{fill:#ea5617;}</style></defs><g id="レイヤー_2" data-name="レイヤー 2"><g id="レイヤー_2-2" data-name="レイヤー 2"><path class="cls-1" d="M100.78,101.68a13.74,13.74,0,0,0-7.66-7.24L81.37,90,51.25,78.46l-.26.1-.25-.1L20.61,90,8.86,94.44a13.77,13.77,0,1,0,9.82,25.73l32.06-12.23.25-.09.26.09L83.3,120.17a13.77,13.77,0,0,0,17.48-18.49Zm-78.37,7a9.63,9.63,0,1,1-9.07-10.16A9.63,9.63,0,0,1,22.41,108.67Zm67.33,9.06a9.63,9.63,0,1,1,9.06-10.16A9.62,9.62,0,0,1,89.74,117.73Z"/><path class="cls-2" d="M24.15,105.33c1.55,7.25-2.52,14.21-9.1,15.53S1.89,117.4.33,110.14,2.85,95.94,9.42,94.6,22.6,98.08,24.15,105.33Z"/><path class="cls-3" d="M19.16,106.34c.9,4.21-1.47,8.25-5.29,9s-7.64-2-8.55-6.23,1.47-8.25,5.28-9S18.26,102.13,19.16,106.34Z"/><path class="cls-3" d="M21.84,105.8c1.24,5.84-2,11.44-7.33,12.51S3.9,115.52,2.64,109.67s2-11.44,7.33-12.51S20.58,100,21.84,105.8Z"/><path class="cls-4" d="M14.63,107.25a2.53,2.53,0,0,1-1.83,3.11,2.61,2.61,0,0,1-3-2.14,2.55,2.55,0,0,1,1.83-3.12A2.63,2.63,0,0,1,14.63,107.25Z"/><path class="cls-2" d="M77.83,105.71c-1.55,7.26,2.53,14.21,9.1,15.54s13.17-3.47,14.73-10.73S99.13,96.32,92.56,95,79.39,98.46,77.83,105.71Z"/><path class="cls-3" d="M82.27,106.72c-.9,4.22,1.47,8.26,5.29,9s7.65-2,8.55-6.22-1.47-8.26-5.28-9S83.18,102.51,82.27,106.72Z"/><path class="cls-3" d="M79.6,106.18c-1.25,5.84,2,11.45,7.32,12.51s10.61-2.79,11.87-8.63-2-11.45-7.33-12.52S80.85,100.34,79.6,106.18Z"/><path class="cls-4" d="M86.8,107.64a2.54,2.54,0,0,0,1.83,3.11,2.61,2.61,0,0,0,3-2.15,2.54,2.54,0,0,0-1.82-3.11A2.61,2.61,0,0,0,86.8,107.64Z"/><polygon class="cls-5" points="86.68 106.48 77.71 111.19 25.32 90.59 26.08 89.47 77.02 108.92 86.68 106.48"/><path class="cls-5" d="M23.14,93.36h0L16.6,95.52,15,100.78l-.51-6L22.07,92C22.41,92.44,22.77,92.91,23.14,93.36Z"/><path class="cls-5" d="M44.37,105.46,23.72,113l-4.37-3.53,5,1,16.07-6A39.63,39.63,0,0,0,44.37,105.46Z"/><path class="cls-6" d="M25.34,16.58s-5,2.66-4.9,11.93c0,0,3.76,4.49,7,2.93C27.48,31.44,22.44,22.27,25.34,16.58Z"/><path class="cls-6" d="M83.22,32.84s4,2.64,3.88,11.85c0,0-3,4.45-5.58,2.91C81.52,47.6,85.52,38.49,83.22,32.84Z"/><path class="cls-6" d="M91.8,68.46c0,.32,0,.65,0,1A36.68,36.68,0,0,1,77,97.52a42.68,42.68,0,0,1-26,8.64,43.19,43.19,0,0,1-7.34-.62c-1.19-.19-2.36-.44-3.51-.73a39.27,39.27,0,0,1-4.43-1.39,40.86,40.86,0,0,1-4.82-2.15c-.83-.43-1.65-.9-2.44-1.39-1.18-.72-2.3-1.49-3.39-2.31l0,0a39.11,39.11,0,0,1-8.63-9.08h0q-.63-.93-1.2-1.89a35.41,35.41,0,0,1-5-17.14V67.49A71.19,71.19,0,0,1,13,49.88a114.68,114.68,0,0,1,3.67-11,16,16,0,0,0,2.76,5.75c1.62,2.06,4.73,4.87,8.36,4.59,0,0,3-6.18,6.48-15.13A93.76,93.76,0,0,0,40.66,0s22.21,11,32,36.49a69.44,69.44,0,0,1,4.49,24.57c7,1.62,10.3-4.67,11.41-7.42a35,35,0,0,1,3.27,13.85C91.79,67.81,91.8,68.13,91.8,68.46Z"/><path class="cls-7" d="M25.07,85.53a0,0,0,0,1,0,0A31,31,0,0,0,47.35,98.32l.14,0c1.09.08,2.22.13,3.4.14,15.22-.18,27.8-11,30.16-25.24-5.51,2.27-11.82-.55-11.82-.55a88,88,0,0,0-6.56-31.95C56,24.72,46.61,17,46.61,17a185.43,185.43,0,0,1-3.79,22.26C40.28,49.9,36.28,61.11,30.34,64.78c0,0-6.64,1.76-9.35-3.81C20.71,69.81,21.4,78.65,25.07,85.53Z"/><path class="cls-8" d="M37.5,84.37c.66,12.44,10.55,14,14.21,14.11a13.78,13.78,0,0,0,9.81-4.72,18.05,18.05,0,0,0,3.15-9.33c.2-3.63-.73-7.1-2.94-9.18-6.35-6-3.39-12.09-3.39-12.09C45.9,66,43.06,72,42.44,75c-.24,1.15-.84,3-.84,3l-1.14-.69-2.61-1.57C37,79.55,37.35,81.67,37.5,84.37Z"/></g></g></svg>