<svg xmlns="http://www.w3.org/2000/svg" viewBox="0 0 20 20"><defs><style>.cls-1{fill:#f6d860;}</style></defs><g id="レイヤー_2" data-name="レイヤー 2"><g id="レイヤー_2-2" data-name="レイヤー 2"><path class="cls-1" d="M3,10A1,1,0,0,0,2,9H1a1,1,0,0,0,0,2H2A1,1,0,0,0,3,10Z"/><path class="cls-1" d="M3.64,5.05a1,1,0,0,0,.7.29,1,1,0,0,0,.71-1.7l-.71-.71A1,1,0,0,0,2.93,4.34Z"/><path class="cls-1" d="M10,3a1,1,0,0,0,1-1V1A1,1,0,0,0,9,1V2A1,1,0,0,0,10,3Z"/><path class="cls-1" d="M15.64,5.34h0a1,1,0,0,0,.68-.29l.71-.71a1,1,0,0,0-1.3-1.52l-.11.11L15,3.64a1,1,0,0,0,0,1.41A1,1,0,0,0,15.64,5.34Z"/><path class="cls-1" d="M3.64,15l-.71.71a1,1,0,0,0,0,1.41,1,1,0,0,0,1.41,0l.71-.71A1,1,0,0,0,3.64,15Z"/><path class="cls-1" d="M19,9H18a1,1,0,0,0,0,2h1a1,1,0,0,0,0-2Z"/><path class="cls-1" d="M16.36,15a1,1,0,0,0-1.36.39,1,1,0,0,0,0,1l.71.71a1,1,0,0,0,1.41-1.41Z"/><circle class="cls-1" cx="10" cy="10" r="5.5"/><path class="cls-1" d="M10,17a1,1,0,0,0-1,1v1a1,1,0,0,0,2,0V18A1,1,0,0,0,10,17Z"/></g></g></svg>